# xmcd CD database file
# Copyright (C) 1997 Ti Kan
#
# Track frame offsets:
#  182
#  13727
#  37832
#  52055
#  78717
#  96347
#  111352
#  134437
#  145397
#
# Disc length: 2215 seconds
#
# Revision: 1
# Processed by: cddbd v1.4b41PL1 Copyright (c) Steve Scherf et al.
# Submitted via: CDWizzard Release:4.31
#
DISCID=8008a509
DTITLE=West, Bruce and Laing - Whatever Turns You On
DYEAR=1900
DGENRE=
TTITLE0=Backfire
TTITLE1=Token
TTITLE2=Sifting Sand
TTITLE3=November Song
TTITLE4=Rock 'n' Roll Machine
TTITLE5=Scotch Crotch
TTITLE6=Slow Blues
TTITLE7=Dirty Shoes
TTITLE8=Like A Plate
EXTD=
EXTT0=
EXTT1=
EXTT2=
EXTT3=
EXTT4=
EXTT5=
EXTT6=
EXTT7=
EXTT8=
PLAYORDER=
